<svg xmlns="http://www.w3.org/2000/svg" xmlns:xlink="http://www.w3.org/1999/xlink" width="224" height="32" viewBox="0 0 224 32"><defs><path class="path1" d="M16.02.972C7.563.972.708 7.827.708 16.284S7.563 31.596 16.02 31.596s15.312-6.855 15.312-15.312S24.477.972 16.02.972zm9.47 13.01c-.05.3-.75.873-.75.873l-3.99 3.667.124.723c-1.472 0-3.543-.025-4.69-.075-1.896-.1-.624-.798-.624-.798s2.47-1.846 4.19-2.844c1.498-.873.65-.873-.273-.998-3.667-.374-8.607.25-8.782.35 0 0 4.94.273 6.312.373 1.397.075.3.35-.05.65-.324.298-5.414 3.616-4.94 3.766 3.567.523 6.985.174 8.906-.126l1.422-.225-1.322.698.674 3.842s.225 1.023.075 1.173c-.15.175-1.272-.474-1.272-.474l-4.49-2.67-4.74 2.77s-.774.498-1 .398c-.15-.05.076-1.148.076-1.148l.948-5.39-3.942-3.59s-.873-.675-.798-.95c.05-.224 1.497-.323 1.497-.323l5.065-.6 2.195-4.44s.5-1.098.7-1.123c.224-.025.673 1.023.673 1.023l2.27 4.54 5.613.674s.948.076.923.25z" id="a"/><path class="path1" d="M10.612 12.263h9.78v4.075h-9.78v-4.075zm5.335-11.248C7.485 1.015.625 7.875.625 16.338S7.485 31.66 15.947 31.66 31.27 24.8 31.27 16.338 24.41 1.015 15.946 1.015zM7.352 6.558h17.115v1.63H7.352v-1.63zm15.486 4.075v7.335H8.168v-7.335h14.67zm1.63 13.855H6.538v-1.63h5.594c-.488-1.63-1.124-2.277-1.914-3.46l1.914-.685c.76 1.124 1.437 2.514 2.037 4.144h3.62c.717-1.63 1.347-2.733 1.888-4.22l2.08.834c-.543 1.255-1.13 1.757-1.752 3.387h4.463v1.63z" id="b"/><path class="path1" d="M15.525.627C7.04.627.16 7.507.16 15.993S7.037 31.36 15.524 31.36 30.89 24.48 30.89 15.992 24.013.627 15.526.627zm6.663 18.97s-.476 1.296-1.35 2.46c0 0 1.56.53 1.43 1.904 0 0 .05 1.535-3.334 1.43 0 0-2.38-.186-3.095-1.19h-.63c-.714 1.004-3.095 1.19-3.095 1.19-3.386.105-3.333-1.43-3.333-1.43-.133-1.374 1.428-1.903 1.428-1.903-.873-1.164-1.35-2.46-1.35-2.46-2.115 3.412-1.903-.476-1.903-.476.397-2.3 2.063-3.808 2.063-3.808-.238-2.09.635-2.46.635-2.46.183-6.453 5.734-6.352 5.87-6.348.134-.003 5.685-.105 5.868 6.348 0 0 .873.37.635 2.46 0 0 1.666 1.508 2.063 3.81 0 0 .212 3.887-1.904.475z" id="c"/><path class="path1" d="M16.154 20.188c.15.096.275.303.275.454 0 .165.385 1.088.853 2.08.51 1.06 1.57 2.532 2.644 3.675.99 1.047 2.217 2.176 2.74 2.492.37.216.153.077.636.44l.02.035c-2.274 1.31-4.66 1.824-7.263 1.89-2.26.008-4.47-.526-6.51-1.48-.276-.13-.534-.29-.8-.435.146-.185.376-.3.575-.423.51-.317 1.735-1.418 2.74-2.45 1.143-1.2 2.093-2.52 2.63-3.664.454-.99.91-2.01 1.005-2.286s.303-.427.454-.33zM18.5 1.426c1.23.25 1.51.263 2.723.707 5.08 1.857 8.867 6.47 9.68 11.82.455 2.982.003 6.076-1.307 8.796-.657 1.364-1.303 2.232-2.252 3.38-.425-.087-.18-.02-.726-.242-.51-.248-1.735-1.198-2.7-2.107-.977-.908-2.23-2.34-2.794-3.166-.564-.84-1.24-2.093-1.515-2.768-.276-.688-.662-1.928-.868-2.754-.248-1.033-.372-3.47-.372-7.6zm-5.077.082c.092 1.955.102 2.89.107 3.577.014 1.83.015 3.66-.002 5.488-.012 1.34.02 2.764-.19 4.093-.117.734-.145.774-.324 1.39-.29.91-.812 2.218-1.143 2.893-.343.687-1.183 1.995-1.872 2.918-.688.91-1.996 2.203-2.92 2.878s-1.913 1.308-2.216 1.418l-.05.014c-.92-1.03-1.69-2.184-2.29-3.43-2.64-5.483-1.676-12.1 2.42-16.607 1.626-1.788 4.84-3.61 5.953-4.008s2.322-.76 2.527-.625z" id="d"/><path class="path1" d="M11.264 19.077c-.76.08-1.304.742-1.304 1.375 0 .635.612 1.073 1.372.985.757-.086 1.372-.673 1.372-1.305 0-.637-.567-1.14-1.44-1.056zm1.93-.523c-.262.19-.315.55-.173.775.137.23.454.255.71.063.252-.198.35-.544.214-.775-.136-.225-.45-.29-.75-.064zM15.835 1.35C7.484 1.35.7 8.124.7 16.482c0 8.354 6.784 15.126 15.136 15.126 8.36 0 15.134-6.772 15.134-15.127 0-8.358-6.775-15.134-15.134-15.134zm8.272 18.928c-1.668 3.543-7.17 5.267-11.244 4.948-3.874-.305-8.855-1.59-9.37-6.28 0 0-.272-2.122 1.786-4.87 0 0 2.96-4.135 6.41-5.315 3.45-1.174 3.853.814 3.853 1.99-.183.995-.526 1.58.77 1.18 0 0 3.39-1.574 4.787-.18 1.126 1.13.186 2.678.186 2.678s-.468.518.494.705c.964.192 3.996 1.596 2.328 5.146zm-3.344-9.79c-.37 0-.666-.3-.666-.665 0-.373.296-.67.666-.67 0 0 4.158-.77 3.66 3.7 0 .026-.002.046-.008.07-.047.316-.325.56-.654.56-.37 0-.67-.297-.67-.667 0 0 .658-2.986-2.33-2.328zm7.024 3.116c-.11 1.61-.486 1.046-.932 1.046-.534 0-.967-.27-.967-.805 0-.464.19-.853.19-.853.058-.196.51-1.367-.298-3.18-1.478-2.484-4.457-2.5-4.81-2.358-.354.138-.878.22-.878.22-.538 0-.97-.43-.97-.962 0-.446.3-.817.706-.932l.024-.005c.03-.006.06-.01.093-.014.413-.08 1.892-.645 3.33-.31 2.573.6 6.105 3.325 4.516 8.154h-.006zm-14.622.703c-4.047.185-7.317 2.353-7.317 5.056 0 2.7 3.27 4.73 7.316 4.54 4.05-.183 7.326-2.718 7.326-5.417s-3.277-4.366-7.326-4.18zm2.756 6.8c-1.24 1.6-3.69 2.38-6.072 1.09-1.132-.615-1.092-1.822-1.092-1.822s-.47-3.813 3.6-4.288c4.075-.474 4.802 3.42 3.563 5.02z" id="e"/></defs><use xlink:href="#a"/><use xlink:href="#b" transform="translate(48)"/><use xlink:href="#c" transform="translate(96)"/><use xlink:href="#d" transform="translate(144)"/><use xlink:href="#e" transform="translate(192)"/></svg>